<?xml version="1.0" standalone="no"?>
<!DOCTYPE svg PUBLIC "-//W3C//DTD SVG 20010904//EN"
 "https://www.w3.org/TR/2001/REC-SVG-20010904/DTD/svg10.dtd">
<svg version="1.0" xmlns="http://www.w3.org/2000/svg"
 width="2500.000000pt" height="3200.000000pt" viewBox="0 0 2500.000000 3200.000000"
 preserveAspectRatio="xMidYMid meet">

<g transform="translate(0.000000,3200.000000) scale(0.100000,-0.100000)"
fill="#000000" stroke="none">
<path d="M1350 30455 c-62 -75 110 -690 320 -1145 146 -317 304 -558 653 -995
66 -82 156 -189 200 -237 43 -49 74 -88 68 -88 -5 0 -50 18 -99 39 -299 132
-466 240 -737 480 -271 240 -346 267 -332 123 13 -135 119 -380 269 -627 205
-336 583 -929 690 -1083 276 -394 652 -814 1142 -1274 541 -509 905 -746 1365
-892 l114 -36 366 -1 c201 -1 554 -5 784 -8 l417 -6 3 -272 c1 -176 6 -276 13
-283 6 -6 107 -13 260 -18 l249 -7 6 -75 c4 -41 7 -129 8 -196 1 -103 4 -123
19 -137 16 -15 47 -17 224 -17 l206 0 6 -31 c3 -17 6 -107 6 -200 l0 -169
-152 0 c-169 0 -1622 25 -2008 35 -229 6 -252 8 -351 35 -198 54 -418 141
-585 229 -241 129 -393 245 -892 683 -43 37 -84 68 -93 68 -13 0 -17 -19 -22
-122 -19 -345 80 -656 354 -1113 215 -360 390 -577 675 -835 185 -167 344
-321 344 -332 0 -27 -178 16 -299 73 -127 59 -259 152 -431 304 -177 156 -196
168 -216 140 -21 -28 -18 -50 21 -159 97 -275 273 -542 606 -921 269 -305 474
-497 669 -627 270 -180 876 -428 1252 -512 64 -14 123 -26 133 -26 16 0 17 -7
12 -57 -4 -32 -33 -292 -66 -578 -223 -1935 -391 -3395 -451 -3915 -38 -333
-131 -1134 -205 -1780 -75 -646 -153 -1330 -175 -1520 -22 -190 -94 -815 -160
-1390 -66 -575 -145 -1259 -175 -1520 -178 -1548 -629 -5468 -650 -5645 -184
-1569 -245 -2139 -233 -2151 20 -19 1579 -32 1594 -13 6 8 27 142 47 299 20
157 120 947 222 1755 102 809 224 1769 270 2135 46 366 199 1572 339 2680 382
3012 957 7560 1037 8190 38 305 85 677 104 825 31 240 268 2112 298 2355 l12
95 4025 0 4025 0 52 -410 c189 -1500 511 -4045 688 -5440 236 -1863 285 -2254
540 -4265 129 -1026 258 -2040 285 -2255 62 -486 221 -1746 521 -4115 127
-1009 237 -1841 243 -1849 15 -19 1574 -6 1594 13 11 11 0 128 -62 667 -66
571 -178 1540 -422 3659 -35 311 -100 876 -144 1255 -135 1175 -237 2056 -305
2650 -36 314 -128 1115 -205 1780 -77 666 -207 1797 -290 2515 -174 1517 -262
2285 -510 4431 -99 862 -180 1573 -180 1582 0 10 15 17 48 22 174 25 508 133
837 270 480 200 706 363 1089 785 405 446 590 717 702 1030 38 105 41 127 20
155 -20 27 -41 15 -171 -102 -262 -233 -400 -324 -586 -386 -84 -28 -189 -45
-189 -30 0 12 141 148 336 325 285 258 468 483 674 827 282 471 382 782 363
1130 -5 104 -8 121 -23 121 -9 0 -68 -46 -131 -102 -324 -288 -530 -453 -706
-564 -187 -119 -474 -242 -725 -313 -97 -27 -119 -29 -353 -35 -361 -10 -1833
-36 -2012 -36 l-153 0 0 178 c0 97 3 187 6 199 6 21 10 22 220 25 178 2 216 6
224 18 5 8 10 69 11 135 1 66 4 154 8 195 l6 75 249 7 c153 5 254 12 260 18 7
7 12 108 14 284 l3 273 541 6 c298 4 651 7 785 7 l245 0 162 54 c322 108 556
241 899 514 358 284 915 834 1252 1237 243 290 370 479 972 1445 159 255 278
526 290 662 6 64 -5 88 -41 88 -32 0 -134 -71 -242 -168 -172 -154 -257 -222
-379 -304 -114 -76 -426 -238 -490 -254 -27 -7 -22 1 51 82 134 148 366 441
513 648 254 358 433 731 574 1202 86 285 120 497 85 532 -40 40 -110 -6 -273
-184 -192 -209 -417 -426 -535 -518 -226 -174 -628 -425 -915 -570 -375 -190
-724 -294 -1090 -326 -74 -6 -594 -10 -1353 -10 -1195 0 -1233 1 -1220 18 7
10 207 222 443 471 292 307 430 460 430 475 l0 21 -6555 0 c-6347 0 -6555 -1
-6558 -18 -3 -12 20 -44 65 -90 406 -425 819 -862 821 -869 3 -5 -541 -7
-1305 -5 -1296 3 -1309 3 -1445 25 -465 76 -858 239 -1423 594 -422 265 -566
387 -949 802 -168 182 -238 227 -276 181z m9502 -5824 c8 -7 16 -159 17 -338
1 -94 4 -125 16 -137 13 -12 56 -15 262 -16 136 0 251 -4 256 -9 5 -5 8 -95 7
-200 0 -132 3 -191 10 -191 6 0 9 -4 6 -9 -11 -18 30 -21 275 -21 l249 0 0
-236 0 -237 -587 7 c-2003 22 -2343 27 -2571 32 l-253 6 3 197 3 196 200 5
c110 3 206 9 213 13 9 6 12 57 12 195 0 103 3 204 6 224 l6 37 249 3 c148 2
252 7 258 13 5 6 13 114 18 240 5 127 12 235 15 240 7 11 1318 -2 1330 -14z
m4468 -8 c1 -16 5 -124 10 -242 6 -159 12 -216 22 -222 7 -5 124 -9 259 -9
l246 0 6 -226 c4 -172 9 -229 19 -235 7 -5 101 -9 209 -9 l196 0 6 -107 c4
-58 7 -147 7 -198 l0 -92 -402 -7 c-222 -3 -785 -11 -1253 -16 -467 -5 -1054
-12 -1302 -15 l-453 -6 0 229 0 229 77 7 c42 3 158 6 258 6 134 0 185 3 193
13 5 6 12 99 14 205 3 106 7 195 10 197 2 2 118 8 256 11 169 5 255 11 262 19
5 6 12 113 16 238 5 146 11 230 18 235 6 4 218 9 471 12 253 3 549 7 658 8
l197 2 0 -27z"/>
<path d="M12829 19427 c-9 -7 -37 -61 -63 -122 -26 -60 -51 -112 -55 -115 -5
-3 -21 -30 -37 -60 -29 -57 -93 -157 -125 -194 -9 -12 -34 -41 -53 -66 -58
-72 -165 -188 -244 -265 -66 -63 -74 -75 -75 -109 -1 -30 5 -44 27 -62 36 -32
70 -30 136 6 30 16 74 39 97 51 23 12 40 25 38 30 -3 4 2 10 11 13 28 11 35 7
24 -13 -17 -33 -12 -49 30 -91 22 -22 40 -44 40 -49 0 -5 17 -24 39 -43 35
-33 41 -35 84 -28 57 8 86 40 87 92 0 64 -34 108 -85 108 -8 0 -15 3 -15 8 0
11 -127 45 -145 38 -26 -10 -16 12 12 26 15 7 55 46 90 85 35 40 63 70 63 66
0 -11 51 60 61 85 5 12 12 22 17 22 4 0 19 -10 32 -22 23 -22 33 -23 173 -23
90 0 150 4 155 10 9 13 249 71 258 63 11 -11 -48 -105 -123 -198 -7 -8 -38
-49 -68 -90 -85 -113 -325 -373 -381 -410 -13 -9 -48 -38 -78 -65 -64 -59
-181 -145 -196 -145 -5 0 -10 -4 -10 -10 0 -9 -92 -74 -141 -99 -14 -7 -45
-30 -69 -51 -36 -32 -42 -42 -36 -64 9 -37 42 -47 86 -28 98 44 207 99 222
112 9 8 38 26 65 40 66 34 136 81 146 97 4 7 13 13 18 13 42 0 372 301 511
466 24 28 63 75 88 104 25 28 61 76 81 105 20 30 54 71 74 92 47 47 68 94 59
131 -12 48 -57 134 -73 140 -9 3 -25 14 -36 24 -29 28 -85 39 -136 29 -61 -13
-323 -103 -330 -113 -9 -14 -152 -13 -157 1 -2 6 -12 11 -22 11 -10 0 -21 4
-24 8 -2 4 17 62 43 127 26 66 53 141 60 168 8 26 18 47 22 47 5 0 9 11 9 25
0 14 -4 25 -10 25 -5 0 -10 7 -10 16 0 49 -116 86 -161 51z"/>
<path d="M11643 19325 c-30 -13 -63 -59 -63 -88 0 -8 9 -35 20 -60 30 -68 40
-321 40 -1042 l0 -620 -33 -26 c-17 -14 -63 -41 -100 -60 -38 -19 -76 -41 -85
-49 -19 -17 -75 -45 -207 -102 -49 -22 -92 -43 -95 -46 -8 -11 -255 -106 -330
-128 -14 -3 -27 -9 -30 -13 -3 -3 -27 -17 -53 -30 -54 -27 -69 -48 -69 -98 0
-40 21 -95 33 -87 5 3 9 1 9 -4 0 -14 47 -32 82 -32 31 0 213 84 233 107 6 6
49 32 98 57 85 45 137 75 147 86 10 12 158 100 167 100 5 0 27 16 49 35 21 19
55 42 74 51 19 9 49 27 67 40 17 13 35 24 39 24 6 0 1 -539 -12 -1210 -6 -302
-6 -305 15 -327 31 -33 83 -31 106 4 15 23 19 78 31 437 21 670 33 1127 41
1534 3 211 10 385 15 388 11 7 10 874 -1 874 -5 0 -11 35 -13 78 -6 94 -37
166 -87 199 -39 27 -45 27 -88 8z"/>
<path d="M11010 18427 c-25 -20 -24 -64 3 -110 14 -23 37 -63 51 -89 14 -26
37 -59 51 -74 13 -14 27 -36 31 -48 4 -11 21 -44 39 -72 27 -41 40 -53 71 -60
59 -14 89 -6 129 32 35 33 37 38 33 84 -4 40 -11 54 -34 72 -16 12 -50 44 -76
70 -26 26 -51 48 -56 48 -5 0 -40 31 -79 69 -93 92 -126 108 -163 78z"/>
<path d="M13136 17995 c-10 -8 -23 -16 -28 -17 -6 -2 -16 -26 -23 -53 -11 -46
-10 -55 11 -111 13 -35 26 -98 30 -146 6 -79 5 -86 -12 -92 -31 -9 -212 -35
-301 -42 -46 -4 -83 -10 -83 -14 0 -9 -263 -30 -482 -37 -164 -5 -190 -8 -208
-25 -59 -55 -21 -178 56 -178 13 0 101 15 196 34 95 19 200 38 233 42 33 4 62
10 65 14 11 16 553 81 566 68 14 -15 34 -304 40 -578 9 -397 -17 -733 -60
-776 -9 -8 -16 -11 -16 -5 0 21 -103 41 -209 41 -58 0 -112 -4 -119 -9 -8 -4
-12 -19 -10 -31 2 -18 17 -28 67 -47 36 -13 84 -37 108 -54 24 -16 47 -29 51
-29 12 0 50 -62 86 -142 40 -87 63 -118 88 -118 25 0 74 81 82 135 4 25 14 52
22 60 10 9 19 49 25 107 5 50 14 108 19 127 15 56 37 222 51 371 6 74 12 322
13 550 l2 415 49 2 c190 10 485 49 485 64 0 12 37 12 42 0 2 -5 30 -15 63 -23
52 -13 64 -14 88 -1 15 7 27 18 27 23 0 5 8 16 17 26 29 29 22 77 -17 114 -73
68 -172 92 -296 71 -158 -26 -349 -65 -354 -71 -4 -6 -98 -30 -115 -30 -3 0
-5 15 -5 33 0 66 -29 204 -53 257 -16 34 -37 62 -55 73 -36 21 -110 22 -136 2z"/>
<path d="M12362 17124 c-13 -9 -22 -26 -22 -40 0 -22 64 -161 80 -174 13 -11
58 -98 80 -155 29 -75 37 -85 66 -85 13 0 24 -5 24 -10 0 -24 39 28 49 65 14
51 14 159 0 210 -12 43 -67 124 -85 125 -6 0 -21 11 -34 25 -13 14 -46 32 -74
40 -61 18 -57 18 -84 -1z"/>
<path d="M12318 15288 c-29 -32 -37 -79 -18 -108 5 -8 10 -10 10 -5 2 29 30
-48 36 -97 4 -32 11 -58 15 -58 5 0 9 -101 9 -224 l0 -223 -31 -7 c-17 -3 -44
-6 -60 -6 -16 0 -29 -4 -29 -8 0 -5 -64 -17 -142 -27 -79 -10 -145 -21 -148
-25 -3 -3 -68 -14 -145 -24 -158 -20 -177 -29 -177 -90 0 -47 16 -66 56 -66
60 0 285 24 281 30 -3 5 329 41 378 40 16 0 17 -27 17 -435 0 -283 -3 -435
-10 -435 -5 0 -10 -14 -10 -31 0 -17 -6 -36 -13 -43 -8 -8 -83 -20 -197 -31
-102 -10 -187 -21 -190 -25 -6 -7 -320 -40 -387 -40 -24 0 -43 -4 -43 -9 0 -4
-84 -11 -187 -15 -104 -4 -197 -10 -208 -12 -21 -5 -55 -69 -55 -102 1 -17 39
-104 40 -88 0 5 7 3 15 -4 16 -14 145 -6 155 9 5 8 192 41 234 41 13 0 26 4
28 9 2 5 82 18 178 27 96 10 177 21 180 25 8 11 190 22 190 11 0 -14 -31 -86
-40 -92 -4 -3 -15 -26 -25 -52 -10 -27 -21 -48 -24 -48 -4 0 -15 -23 -25 -50
-10 -28 -23 -54 -30 -58 -6 -4 -20 -26 -30 -49 -11 -24 -22 -43 -26 -43 -4 0
-10 -8 -14 -17 -6 -20 -23 -47 -48 -77 -37 -44 -44 -52 -62 -80 -31 -48 -59
-77 -228 -243 -30 -29 -58 -53 -62 -53 -4 0 -17 -11 -28 -25 -11 -14 -25 -25
-31 -25 -7 0 -18 -9 -25 -20 -7 -11 -19 -20 -27 -20 -8 0 -19 -9 -25 -20 -6
-11 -17 -20 -25 -20 -8 0 -20 -8 -27 -18 -7 -9 -30 -26 -50 -37 -21 -11 -38
-23 -38 -27 0 -3 -18 -14 -40 -24 -22 -10 -40 -21 -40 -24 0 -4 -18 -15 -40
-25 -22 -10 -40 -21 -40 -26 0 -4 -13 -12 -29 -17 -52 -18 -49 -105 5 -118 29
-8 104 14 111 32 2 6 25 20 51 29 26 10 51 24 55 32 4 7 15 13 22 13 8 0 23 8
33 18 10 9 35 26 57 37 22 11 44 26 48 33 4 6 14 12 22 12 8 0 20 9 27 20 7
11 18 20 24 20 6 0 22 10 35 23 14 12 37 30 53 40 36 24 65 47 91 75 12 12 25
22 29 22 12 0 336 335 336 348 0 4 16 25 35 47 19 22 35 43 35 46 0 3 11 19
25 35 52 62 69 86 85 122 5 12 14 22 20 22 5 0 10 5 10 11 0 6 12 30 28 53 15
22 33 53 41 69 8 15 18 27 23 27 4 0 8 6 8 13 0 6 7 21 16 32 13 18 14 14 10
-45 -3 -36 -11 -252 -17 -480 -7 -228 -15 -417 -19 -420 -3 -3 -12 -165 -19
-361 -15 -410 -16 -400 66 -437 l49 -22 52 25 c29 14 52 32 52 40 0 8 5 15 10
15 7 0 10 143 10 410 0 267 -3 410 -10 410 -6 0 -10 138 -10 395 0 217 2 395
5 395 3 0 26 -23 52 -51 47 -49 163 -165 270 -267 29 -27 65 -58 80 -67 16
-10 34 -27 41 -37 7 -10 19 -18 26 -18 7 0 22 -13 34 -30 13 -16 29 -30 36
-30 8 0 16 -7 20 -15 3 -8 17 -20 31 -25 14 -5 25 -14 25 -19 0 -6 12 -17 28
-25 15 -8 38 -24 52 -35 14 -12 40 -33 58 -49 18 -15 44 -37 59 -49 14 -13 29
-23 33 -23 3 0 15 -9 27 -19 11 -10 34 -26 52 -35 36 -19 64 -40 96 -73 12
-13 27 -23 32 -23 5 0 18 -8 29 -17 10 -10 33 -25 49 -33 17 -8 40 -24 53 -36
24 -23 63 -34 118 -34 19 0 34 -4 34 -10 0 -5 9 -10 20 -10 11 0 20 4 20 8 0
4 65 16 145 26 80 11 145 22 145 26 0 3 54 14 120 24 111 16 121 20 126 41 13
52 0 62 -89 68 -45 4 -114 7 -154 7 -39 0 -74 4 -77 8 -3 5 -45 12 -93 15 -83
6 -153 23 -153 38 0 4 -22 15 -50 25 -27 10 -50 21 -50 25 0 3 -21 14 -47 24
-27 10 -54 25 -61 32 -7 7 -20 13 -28 13 -8 0 -22 8 -32 18 -9 9 -39 28 -65
41 -26 13 -47 27 -47 30 0 4 -20 15 -45 26 -25 11 -45 23 -45 28 0 4 -10 11
-22 16 -25 10 -58 34 -95 69 -13 12 -27 22 -31 22 -4 0 -25 16 -47 35 -22 19
-55 47 -72 62 -18 16 -75 70 -127 121 -52 50 -99 92 -105 92 -6 0 -11 5 -11
11 0 5 -48 59 -107 119 -126 128 -164 171 -158 180 2 4 51 10 107 14 56 4 105
11 108 15 3 5 37 11 75 14 236 18 361 31 365 38 3 5 111 11 240 14 277 7 324
15 345 56 8 15 15 35 15 44 0 8 5 15 10 15 6 0 10 12 10 28 0 21 -2 24 -10 12
-8 -12 -10 -10 -10 8 0 41 -31 81 -67 88 -40 8 -163 -4 -163 -16 0 -4 -53 -16
-117 -26 -65 -10 -120 -21 -123 -25 -5 -7 -232 -39 -280 -39 -16 0 -30 -4 -32
-9 -1 -5 -86 -17 -188 -27 -102 -9 -187 -21 -190 -25 -3 -4 -49 -10 -102 -14
l-98 -7 0 51 c0 29 4 50 8 47 5 -3 12 169 16 382 4 213 11 407 14 432 l7 45
100 9 c55 5 102 12 105 16 3 4 88 15 190 24 102 10 187 22 188 27 2 5 22 9 45
9 46 0 92 19 92 37 0 6 3 15 8 19 10 10 9 46 -3 81 -19 52 -54 57 -247 32 -92
-12 -170 -25 -173 -29 -5 -7 -238 -40 -279 -40 -19 0 -21 5 -21 75 0 41 4 75
8 75 10 0 26 209 27 333 0 64 -4 81 -18 91 -9 7 -17 18 -17 23 0 19 -83 81
-117 88 -18 3 -31 10 -28 16 4 5 -10 9 -32 9 -30 -1 -44 -8 -65 -32z"/>
<path d="M13152 14276 c-18 -9 -31 -19 -30 -24 2 -5 -8 -21 -22 -36 -36 -37
-52 -57 -74 -91 -20 -32 -30 -44 -70 -88 -14 -15 -26 -31 -26 -35 0 -4 -16
-25 -35 -47 -19 -22 -35 -43 -35 -46 0 -3 -11 -19 -25 -35 -14 -16 -25 -32
-25 -36 0 -5 -9 -17 -21 -29 -12 -12 -23 -38 -26 -59 -5 -35 -3 -38 24 -44 33
-8 77 6 90 26 4 8 25 22 46 32 20 9 37 21 37 27 0 5 8 12 18 16 17 6 27 14 85
67 15 14 32 26 37 26 5 0 17 11 28 25 11 14 24 25 29 25 6 0 26 16 46 35 20
19 40 35 46 35 5 0 19 14 31 30 12 17 27 30 34 30 8 0 19 20 25 44 9 36 8 54
-6 96 -10 33 -21 49 -29 46 -7 -3 -14 0 -16 6 -6 17 -99 20 -136 4z"/>
<path d="M11681 14034 c-47 -24 -72 -64 -69 -112 1 -25 8 -50 16 -56 7 -6 21
-19 30 -28 9 -10 21 -18 27 -18 6 0 20 -8 31 -18 10 -10 35 -27 54 -38 19 -10
39 -25 43 -31 4 -7 14 -13 21 -13 7 0 23 -10 36 -22 16 -15 25 -18 28 -10 2 7
15 12 28 12 18 0 29 9 40 34 15 31 15 36 -2 72 -10 21 -26 45 -36 52 -10 7
-18 19 -18 26 0 8 -11 21 -25 30 -14 9 -25 23 -25 31 0 8 -9 19 -20 25 -11 6
-20 17 -20 24 0 34 -96 62 -139 40z"/>
<path fill="#fc0303" d="M12165 10959 c-27 -9 -134 -27 -195 -33 -35 -4 -191 -42 -290 -71
-42 -12 -89 -32 -102 -43 -8 -6 -34 -19 -58 -27 -72 -26 -236 -125 -295 -180
-12 -11 -54 -44 -93 -74 -39 -30 -92 -74 -118 -98 -26 -23 -51 -43 -56 -43 -4
0 -8 -8 -8 -17 0 -9 -3 -14 -6 -10 -9 8 -143 -127 -181 -184 -17 -25 -38 -51
-47 -58 -9 -7 -14 -17 -11 -21 2 -4 -6 -17 -18 -30 -22 -23 -35 -45 -77 -125
-12 -22 -27 -49 -33 -60 -7 -11 -28 -47 -48 -80 -19 -33 -50 -98 -68 -145 -19
-47 -39 -98 -46 -115 -7 -16 -20 -68 -30 -115 -9 -47 -21 -94 -25 -105 -5 -11
-11 -40 -14 -65 -8 -77 -25 -180 -31 -189 -6 -10 -7 -357 -1 -421 10 -107 19
-161 27 -166 5 -3 9 -17 9 -32 0 -47 42 -227 70 -297 4 -11 13 -39 19 -62 7
-24 16 -43 21 -43 6 0 10 -7 10 -16 0 -23 41 -113 72 -160 15 -23 28 -47 28
-54 0 -6 4 -9 9 -6 5 3 12 -10 15 -30 4 -19 18 -45 32 -56 13 -12 24 -27 24
-34 0 -6 7 -14 15 -18 8 -3 15 -10 15 -17 0 -16 147 -188 199 -233 14 -12 36
-32 49 -46 13 -14 28 -26 33 -26 5 -1 13 -2 19 -3 5 0 9 -5 7 -9 -3 -10 49
-62 62 -62 8 0 38 -22 108 -80 7 -6 15 -10 18 -10 7 0 63 -39 83 -57 7 -7 18
-13 24 -13 5 0 22 -8 36 -19 15 -10 38 -22 52 -26 14 -4 32 -14 41 -21 26 -23
249 -134 269 -134 10 0 25 -6 32 -12 25 -23 57 -38 83 -38 14 0 25 -4 25 -10
0 -5 18 -10 39 -10 22 0 43 -4 46 -10 3 -5 22 -10 41 -10 20 0 43 -4 53 -10
57 -30 636 -45 781 -20 101 17 161 31 210 47 25 8 53 16 63 18 63 13 352 152
392 188 11 10 36 27 56 37 19 10 41 26 48 34 8 9 21 16 31 16 9 0 26 11 36 25
10 14 22 25 26 25 9 0 43 27 73 58 12 12 26 22 31 22 5 0 33 23 63 50 30 28
56 50 57 50 13 0 94 87 94 101 0 10 12 25 28 33 30 16 56 44 110 119 20 29 40
54 44 55 5 2 8 15 8 30 0 14 3 23 6 19 6 -6 34 16 34 27 0 3 14 27 30 53 17
26 30 55 30 65 0 10 5 18 10 18 6 0 15 12 22 28 10 26 22 54 67 155 12 26 21
56 21 65 0 10 4 22 8 28 11 12 43 125 47 166 1 9 6 25 10 35 21 50 43 195 57
384 12 163 2 393 -22 509 -7 30 -15 73 -20 95 -18 89 -44 171 -61 197 -11 14
-19 35 -19 45 0 28 -44 135 -82 200 -19 32 -41 72 -49 88 -7 17 -17 32 -20 35
-3 3 -14 21 -24 40 -24 47 -51 81 -59 73 -3 -3 -6 1 -6 10 0 10 -5 17 -11 17
-5 0 -8 4 -5 8 8 13 -52 97 -116 165 -16 16 -28 32 -28 36 0 4 -11 14 -25 21
-13 7 -22 16 -20 20 4 6 -109 120 -119 120 -2 0 -26 22 -53 48 -26 27 -53 51
-59 53 -6 2 -29 19 -50 37 -48 40 -112 82 -124 82 -6 0 -10 5 -10 10 0 6 -7
10 -15 10 -8 0 -15 3 -15 8 0 4 -15 13 -32 21 -18 8 -50 25 -70 38 -21 13 -59
30 -85 39 -27 9 -55 22 -63 29 -8 7 -42 22 -76 33 -34 11 -75 27 -92 36 -17 9
-42 16 -55 16 -12 0 -27 4 -33 9 -12 12 -137 39 -254 55 -112 16 -511 19 -555
5z m967 -565 c83 -28 158 -125 158 -204 0 -81 -45 -137 -193 -242 -37 -26 -67
-52 -67 -57 0 -17 124 -23 225 -11 141 17 384 18 413 2 68 -39 61 -97 -17
-137 -100 -50 -147 -57 -421 -60 -262 -3 -363 -15 -415 -49 -22 -15 -115 -157
-115 -176 0 -14 36 -13 274 10 115 11 221 17 235 14 58 -12 102 -38 123 -73
l22 -35 -2 -665 c-2 -366 -6 -682 -9 -701 -8 -52 -21 -70 -59 -86 -51 -21 -95
0 -118 56 l-17 43 -217 -6 c-119 -4 -289 -11 -376 -17 -152 -10 -161 -11 -204
-40 -69 -45 -129 -36 -176 28 -26 34 -31 124 -47 807 -13 596 -15 576 48 625
25 20 38 22 143 20 148 -3 140 -4 140 25 0 14 10 46 21 70 12 25 19 48 17 51
-3 2 -65 -12 -139 -32 -232 -63 -356 -59 -517 17 -90 43 -117 105 -67 154 29
30 64 32 143 9 73 -22 185 -14 307 21 50 14 146 39 215 56 269 66 247 55 409
213 78 78 156 158 172 179 l28 39 -19 49 c-25 63 -25 65 5 94 28 29 37 30 97
9z m-894 -139 c100 -13 203 -99 263 -217 36 -72 37 -117 4 -156 -49 -59 -117
-49 -172 25 -15 21 -62 76 -103 123 -111 124 -171 201 -167 214 4 11 77 24
112 20 11 -2 39 -5 63 -9z m-914 -55 c147 -22 262 -103 323 -229 24 -47 28
-68 28 -143 0 -86 -1 -88 -33 -120 -29 -29 -39 -33 -87 -33 -51 0 -57 3 -100
45 -26 25 -70 86 -100 135 -51 87 -106 148 -190 210 -50 37 -55 44 -55 76 0
36 23 53 84 60 28 3 53 7 56 7 3 1 36 -3 74 -8z m306 -959 c20 -10 44 -36 58
-62 20 -37 23 -54 19 -104 -5 -49 -18 -84 -77 -198 l-72 -139 12 -62 c7 -33
16 -69 22 -79 5 -11 44 -35 86 -54 115 -52 152 -94 152 -173 0 -70 -34 -115
-137 -179 -79 -49 -83 -58 -31 -71 144 -36 240 -69 444 -148 294 -114 398
-143 751 -207 299 -54 579 -85 769 -85 98 0 131 -10 144 -46 18 -47 -5 -75
-95 -111 -209 -83 -406 -118 -615 -110 -215 8 -342 53 -660 232 -256 144 -458
220 -694 260 -114 19 -366 19 -511 0 -60 -8 -151 -15 -200 -15 -92 0 -120 9
-152 50 -18 22 -16 92 3 118 33 48 147 85 292 96 79 6 84 8 145 56 34 26 91
70 127 97 37 27 66 57 68 69 5 32 -34 71 -99 100 -140 63 -190 201 -115 314
31 47 26 49 -69 15 -128 -45 -234 -27 -316 55 -84 85 -100 182 -38 234 40 34
75 33 161 -5 38 -17 94 -36 125 -42 54 -11 56 -11 131 28 42 22 106 64 142 95
109 92 161 108 230 71z"/>
<path fill="#fc0303" d="M12780 9254 c-223 -14 -387 -38 -408 -58 -10 -10 -12 -31 -6 -85 6
-68 8 -72 28 -67 55 14 396 55 558 66 74 5 115 12 133 24 24 16 26 22 23 74
l-3 57 -60 1 c-33 1 -152 -4 -265 -12z"/>
<path fill="#fc0303" d="M13009 8855 c-3 -2 -77 -12 -165 -20 -87 -9 -202 -20 -254 -25 -52
-5 -121 -10 -153 -10 l-58 0 3 -72 3 -73 135 1 c74 1 209 12 300 24 91 12 197
25 235 28 l70 7 0 55 c-1 82 -6 90 -63 90 -27 0 -51 -2 -53 -5z"/>
<path fill="#fc0303" d="M12891 8449 c-117 -15 -259 -37 -315 -48 -55 -11 -116 -22 -135 -25
-46 -6 -60 -22 -39 -42 14 -15 49 -15 369 -5 279 8 356 13 367 24 20 21 6 128
-17 126 -9 -1 -112 -14 -230 -30z"/>
<path fill="#fc0303" d="M15500 8290 c-30 -22 -56 -44 -59 -49 -4 -4 -17 -14 -29 -20 -13 -7
-21 -15 -18 -19 4 -3 -9 -13 -27 -21 -35 -17 -110 -71 -115 -84 -2 -4 -19 -14
-38 -22 -19 -8 -34 -19 -34 -25 0 -5 -26 -27 -57 -47 -32 -20 -69 -47 -83 -60
-14 -13 -28 -23 -31 -23 -6 0 -15 -7 -71 -55 -12 -11 -31 -24 -40 -30 -63 -37
-149 -101 -153 -115 -3 -9 -20 -20 -38 -25 -18 -6 -36 -20 -42 -32 -5 -13 -17
-23 -27 -23 -9 0 -23 -8 -30 -19 -7 -10 -22 -21 -33 -25 -11 -3 -39 -24 -63
-46 -24 -22 -45 -40 -48 -40 -5 0 -65 -41 -143 -98 -13 -9 -40 -32 -60 -49
-20 -18 -42 -33 -48 -33 -7 0 -13 -3 -13 -8 0 -4 -16 -16 -36 -27 -19 -10 -46
-31 -59 -46 -12 -16 -25 -26 -28 -23 -2 3 -17 -9 -33 -26 -16 -18 -38 -36 -49
-41 -38 -17 -90 -51 -100 -63 -5 -7 -44 -36 -85 -66 -41 -29 -79 -58 -85 -65
-5 -6 -36 -28 -68 -50 -33 -21 -61 -44 -64 -52 -3 -7 -10 -13 -15 -13 -6 0
-24 -11 -42 -25 -17 -14 -42 -33 -54 -42 -13 -10 -39 -33 -58 -52 -19 -19 -34
-30 -34 -25 0 5 -5 2 -10 -6 -5 -8 -13 -15 -17 -15 -19 -1 -127 -78 -200 -142
-14 -13 -29 -23 -32 -23 -3 0 -19 -12 -36 -26 -16 -14 -56 -44 -87 -66 -31
-22 -59 -47 -62 -55 -3 -8 -10 -11 -16 -8 -5 3 -10 1 -10 -4 0 -6 -3 -10 -7
-10 -19 3 -34 -2 -29 -10 3 -4 -6 -13 -19 -19 -14 -7 -25 -16 -25 -22 0 -5 -7
-10 -15 -10 -8 0 -20 -9 -27 -20 -7 -11 -20 -20 -30 -20 -9 0 -18 -4 -20 -8
-2 -4 -34 -30 -72 -57 -37 -28 -94 -71 -125 -96 -31 -26 -76 -56 -100 -67 -44
-22 -44 -22 -76 -2 -17 11 -40 28 -50 40 -10 11 -23 20 -29 20 -7 0 -19 8 -27
18 -22 23 -58 52 -66 52 -4 0 -18 11 -32 24 -49 45 -243 186 -257 186 -8 0
-14 7 -14 15 0 8 -18 24 -39 35 -22 10 -41 23 -43 28 -1 4 -24 23 -50 42 -27
18 -48 37 -48 42 0 4 -9 8 -20 8 -11 0 -20 4 -20 8 0 5 -21 24 -47 43 -27 18
-55 39 -63 46 -114 91 -146 113 -161 113 -11 0 -16 5 -13 13 3 8 -11 22 -34
35 -21 11 -46 30 -57 42 -10 11 -24 20 -32 20 -7 0 -13 4 -13 10 0 5 -18 19
-40 30 -22 11 -40 24 -40 28 0 4 -14 16 -31 26 -17 10 -41 29 -52 42 -11 13
-25 24 -31 24 -6 0 -25 13 -41 28 -17 16 -49 41 -73 57 -23 15 -42 32 -42 38
0 6 -3 8 -6 4 -3 -3 -11 -2 -18 4 -45 37 -99 79 -135 104 -23 17 -69 51 -101
78 -32 26 -61 47 -65 47 -3 0 -12 6 -19 13 -21 20 -66 52 -69 48 -1 -2 -20 14
-43 35 -23 22 -65 55 -94 74 -29 19 -60 42 -69 50 -9 8 -32 26 -51 40 -19 13
-44 33 -55 43 -11 10 -31 25 -45 32 -14 7 -36 25 -49 39 -14 14 -29 26 -34 26
-6 0 -17 7 -26 15 -30 28 -90 76 -93 75 -10 -4 -37 14 -32 21 3 5 0 9 -6 9
-11 0 -24 9 -61 43 -11 10 -33 26 -48 35 -28 17 -156 116 -222 171 -20 17 -39
31 -43 31 -7 0 -119 83 -156 115 -26 24 -80 39 -80 23 0 -5 -6 -16 -12 -23
-22 -23 -82 -92 -98 -111 -8 -10 -25 -34 -37 -53 -12 -20 -23 -31 -23 -26 0 6
-6 1 -13 -11 -6 -11 -30 -47 -52 -79 -22 -32 -43 -64 -47 -71 -5 -8 -12 -22
-18 -31 -5 -10 -21 -38 -35 -63 -14 -25 -29 -52 -34 -60 -60 -105 -175 -385
-165 -401 2 -4 -3 -9 -11 -13 -8 -3 -15 -16 -15 -29 0 -13 -4 -27 -10 -33 -11
-11 -58 -145 -67 -189 -3 -16 -12 -40 -20 -52 -15 -23 -17 -30 -51 -164 -11
-42 -25 -86 -31 -97 -6 -11 -11 -31 -11 -44 0 -12 -6 -40 -14 -63 -27 -77 -76
-333 -76 -397 0 -19 -3 -38 -7 -42 -4 -4 -8 -26 -9 -49 -1 -24 -7 -94 -14
-157 -14 -143 -15 -791 -1 -874 6 -33 15 -113 21 -176 6 -63 16 -137 21 -165
5 -27 14 -72 19 -100 21 -110 53 -253 70 -310 10 -33 26 -89 35 -124 9 -35 25
-79 36 -99 10 -20 19 -45 19 -55 0 -16 20 -71 51 -142 13 -31 32 -79 33 -86 1
-3 15 -34 32 -70 17 -35 44 -90 59 -121 15 -31 33 -62 41 -69 8 -6 14 -19 15
-28 0 -9 9 -29 20 -46 10 -16 26 -45 34 -62 8 -18 22 -33 30 -33 8 0 15 -9 15
-20 0 -22 54 -110 94 -153 14 -15 26 -32 26 -36 0 -4 9 -16 20 -26 11 -10 20
-22 20 -27 0 -8 9 -19 65 -81 19 -21 35 -42 35 -45 0 -6 6 -13 80 -92 24 -25
49 -55 58 -67 8 -13 20 -23 27 -23 8 0 15 -6 17 -14 5 -24 268 -306 268 -289
1 4 8 -4 16 -19 8 -16 18 -28 22 -28 4 0 50 -41 102 -90 52 -50 101 -90 109
-90 8 0 12 -3 8 -6 -6 -7 105 -104 119 -104 4 0 14 -7 23 -15 53 -48 62 -55
71 -55 5 0 22 -12 38 -27 27 -26 57 -46 121 -82 14 -8 33 -22 43 -31 10 -9 31
-23 46 -30 15 -8 35 -20 44 -28 9 -8 25 -12 35 -10 10 2 22 -5 28 -15 6 -10
38 -31 72 -46 34 -15 70 -34 80 -43 10 -8 36 -22 58 -29 22 -8 51 -21 65 -30
14 -10 50 -25 80 -34 30 -10 60 -21 65 -25 18 -14 340 -118 396 -129 30 -5 74
-17 98 -25 24 -9 52 -16 62 -16 11 0 27 -4 37 -9 28 -15 147 -39 327 -67 94
-14 184 -30 201 -35 17 -5 50 -9 75 -9 24 0 71 -5 104 -10 78 -13 655 -16 681
-3 10 5 55 10 98 11 44 1 96 7 116 12 19 5 51 12 71 14 33 4 88 16 249 53 99
23 480 153 504 172 6 5 28 14 49 20 20 7 37 17 37 22 0 5 8 9 18 9 10 0 55 18
99 41 65 32 81 44 76 57 -6 15 -4 15 9 4 14 -11 26 -7 82 28 36 23 73 43 82
44 8 1 19 7 22 13 4 6 25 20 47 32 50 26 78 44 85 52 3 3 21 14 40 24 43 22
128 78 155 102 11 10 33 25 48 33 16 8 33 22 38 32 5 10 16 18 24 18 7 0 20 6
27 13 7 7 45 37 83 67 64 50 96 78 192 169 18 17 37 31 43 31 5 0 10 7 10 16
0 8 5 12 10 9 6 -3 10 -1 10 4 0 15 32 51 45 51 5 0 19 11 30 25 47 57 75 88
75 81 0 -4 24 21 52 56 29 35 53 66 53 71 0 4 3 6 6 5 3 -2 19 13 35 32 16 19
31 37 34 40 18 16 80 99 80 106 0 5 11 21 24 35 13 14 31 40 40 57 9 18 20 32
25 32 9 0 42 53 63 103 7 15 18 27 24 27 14 0 27 28 19 40 -3 5 3 15 12 22 10
7 25 27 33 43 8 17 24 44 37 60 30 42 161 295 189 368 13 34 27 63 32 66 4 3
18 33 31 66 13 33 32 78 42 101 11 22 19 46 19 52 0 7 4 20 9 30 11 23 31 78
44 127 7 22 14 42 18 45 3 3 9 19 12 35 12 63 19 91 26 110 26 64 48 150 56
214 2 16 9 49 16 73 6 24 11 43 11 43 -1 0 3 18 9 40 16 66 53 353 65 500 15
197 4 715 -16 755 -4 8 -11 49 -15 90 -4 41 -11 95 -17 120 -5 25 -14 68 -18
95 -5 28 -12 66 -16 85 -4 19 -7 43 -8 53 0 9 -4 17 -8 17 -4 0 -8 15 -8 33 0
17 -7 52 -16 77 -8 24 -19 63 -24 85 -15 73 -93 345 -109 380 -5 11 -15 37
-21 57 -6 21 -16 40 -21 43 -5 4 -9 15 -9 26 0 19 -61 174 -81 209 -5 8 -14
25 -19 38 -6 12 -14 32 -20 45 -5 12 -14 29 -19 37 -5 8 -17 35 -27 60 -10 25
-21 47 -25 50 -3 3 -17 29 -30 58 -13 28 -27 52 -31 52 -5 0 -8 8 -8 18 0 9
-14 35 -30 56 -17 22 -30 44 -30 50 0 9 -46 82 -60 96 -3 3 -14 23 -25 44 -11
22 -33 48 -50 58 -16 10 -23 18 -15 18 12 0 12 2 2 9 -8 4 -13 10 -11 12 5 8
-47 79 -58 79 -7 0 -13 8 -13 18 0 23 -46 72 -69 72 -9 0 -42 -18 -71 -40z"/>
</g>
</svg>
